<svg width="512" height="512" viewBox="0 0 512 512" xmlns="http://www.w3.org/2000/svg">
  <defs>
    <linearGradient id="bg" x1="0" y1="0" x2="1" y2="1">
      <stop offset="0" stop-color="#111827" />
      <stop offset="1" stop-color="#1f2937" />
    </linearGradient>
    <linearGradient id="accent" x1="0" y1="0" x2="1" y2="1">
      <stop offset="0" stop-color="#38bdf8" />
      <stop offset="1" stop-color="#8b5cf6" />
    </linearGradient>
    <linearGradient id="glow" x1="0" y1="0" x2="0" y2="1">
      <stop offset="0" stop-color="#a855f7" stop-opacity="0.35" />
      <stop offset="1" stop-color="#38bdf8" stop-opacity="0" />
    </linearGradient>
  </defs>

  <rect width="512" height="512" rx="120" fill="url(#bg)" />
  <circle cx="256" cy="220" r="120" fill="#0f172a" opacity="0.75" />
  <ellipse cx="256" cy="420" rx="150" ry="70" fill="url(#glow)" />

  <path
    d="M180 238c0-60 44-102 98-102 56 0 98 40 98 92 0 40-22 68-56 82-18 8-24 16-24 30v6"
    fill="none"
    stroke="url(#accent)"
    stroke-width="28"
    stroke-linecap="round"
    stroke-linejoin="round"
  />
  <circle cx="248" cy="350" r="20" fill="#38bdf8" />

  <path
    d="M150 326c-12 18-18 39-18 62 0 12 9 22 20 22h208c11 0 20-10 20-22 0-23-6-44-18-62"
    fill="none"
    stroke="#1f8ef1"
    stroke-width="20"
    stroke-linecap="round"
  />

  <circle cx="190" cy="188" r="14" fill="#38bdf8" opacity="0.85" />
  <circle cx="322" cy="168" r="10" fill="#8b5cf6" opacity="0.9" />
  <circle cx="356" cy="252" r="12" fill="#60a5fa" opacity="0.8" />

  <path
    d="M214 408h84"
    stroke="#38bdf8"
    stroke-width="12"
    stroke-linecap="round"
    opacity="0.6"
  />
</svg>