<svg xmlns="http://www.w3.org/2000/svg" viewBox="0 0 24 24" role="img" aria-labelledby="title">
    <title>Alibaba Cloud</title>
    <path fill="#ff6a00"
        d="M3.676 7.327h3.2V5.124H3A3.09 3.09 0 0 0 0 8.103v7.794A3.09 3.09 0 0 0 3 19.774h3.876v-2.203h-3.2a.89.89 0 0 1-.876-.897V8.224a.89.89 0 0 1 .876-.897m17.574-.003a3.09 3.09 0 0 0-3-2.202H14.37v2.203H17.6c.483 0 .876.409.876.899v8.45a.89.89 0 0 1-.876.898h-3.2v2.203h3.88a3.09 3.09 0 0 0 3-2.202zM14.093 10.94h-4.38v2.204h4.38z" />
</svg>