<svg xmlns="http://www.w3.org/2000/svg" viewBox="0 0 24 24" role="img" aria-labelledby="title">
    <title>Baidu</title>
    <path fill="#2319dc"
        d="M5.498 3.797c0 2.098-1.286 3.797-2.873 3.797C1.038 7.594 0 5.895 0 3.797 0 1.7 1.286 0 2.625 0c1.54 0 2.873 1.7 2.873 3.797m1.31 6.255c1.255 0 2.276-1.472 2.276-3.286 0-1.814-1.021-3.286-2.275-3.286-1.255 0-2.276 1.472-2.276 3.286 0 1.814 1.021 3.286 2.276 3.286m4.873.073c1.597 0 2.896-1.798 2.896-4.014 0-2.215-1.299-4.013-2.896-4.013-1.598 0-2.897 1.8-2.897 4.013 0 2.216 1.3 4.014 2.897 4.014m5.393-.492c1.34 0 2.425-1.427 2.425-3.19 0-1.761-1.085-3.19-2.425-3.19-1.339 0-2.424 1.429-2.424 3.19 0 1.763 1.085 3.19 2.424 3.19m4.976-.758C23.36 8 24 6.673 24 5.09c0-1.586-.638-2.914-1.431-2.914-.793 0-1.431 1.328-1.431 2.914 0 1.585.637 2.913 1.43 2.913M3.37 16.157c.14.644.32 1.228.472 1.794.119.446.274.93.314 1.382.08.88-.145 1.366-.79 1.81-.316.219-.617.48-1.064.832.846.308 1.492.567 2.298.84.21-1.19.401-2.276.603-3.36.08-.427.214-.848.294-1.276.077-.425.111-.86.2-1.282.153-.732.186-.75.94-.681.654.06 1.313.021 1.975.021h1.057c-.854-1.104-1.987-1.713-3.158-2.174-1.735-.699-3.54-1.215-5.4-1.485-.224-.033-.45-.02-.807-.03.402.383.684.686 1.013.921 1.13.802 2.234 1.692 3.362 2.467.6.41.714.846.296 1.381-.384.498-.823.958-1.24 1.434-.268.303-.555.587-.948 1 .763.074 1.28.122 1.668.16.112-.99.198-1.89.34-2.778.071-.453.132-.94.536-.724m10.22 4.8c.622-.302.946-.772.82-1.504-.1-.606-.393-1.107-.75-1.58a11.836 11.836 0 0 0-.617-.734c-.644-.664-.523-.936.309-1.208.426-.141.885-.182 1.465-.293-.556-.339-1.01-.604-1.452-.89-.526-.333-1.015-.737-1.575-1.003-.732-.35-1.522-.597-2.285-.886-.138-.052-.302-.052-.455-.075-.025.035-.05.07-.074.104.154.113.302.236.46.341 1.078.71 2.088 1.539 3.04 2.44.824.783.792 1.182-.175 1.851-.165.114-.339.217-.507.325-.036-.023-.072-.047-.108-.07.232-.422.463-.845.725-1.323-.65.227-1.263.438-1.842.639.5 1.514 1.08 2.96 1.456 4.462.174.698.366.208.575.108" />
</svg>