<svg xmlns="http://www.w3.org/2000/svg" viewBox="0 0 48 48" role="img" aria-labelledby="title">
    <title>Qianwen</title>
    <defs>
        <linearGradient id="qianwenGradient" x1="0%" y1="0%" x2="100%" y2="100%">
            <stop offset="0%" style="stop-color:#615EF0"/>
            <stop offset="100%" style="stop-color:#9B59B6"/>
        </linearGradient>
    </defs>
    <rect width="48" height="48" rx="12" fill="url(#qianwenGradient)" />
    <path fill="#ffffff"
        d="M24 10c-7.7 0-14 6.3-14 14s6.3 14 14 14c2.5 0 4.9-.7 7-1.9l5.3 1.8c.6.2 1.2-.4 1-1l-1.8-5.3c1.2-2.1 1.9-4.5 1.9-7C37.4 16.3 31.7 10 24 10zm0 4c5.5 0 10 4.5 10 10 0 2-.6 3.9-1.6 5.4l-.4.6.9 2.6-2.6-.9-.6.4c-1.5 1-3.4 1.6-5.4 1.6-5.5 0-10-4.5-10-10s4.5-10 10-10z" />
    <circle cx="18" cy="24" r="2" fill="#ffffff"/>
    <circle cx="24" cy="24" r="2" fill="#ffffff"/>
    <circle cx="30" cy="24" r="2" fill="#ffffff"/>
</svg>
