<svg xmlns="http://www.w3.org/2000/svg" viewBox="0 0 24 24" role="img" aria-labelledby="title">
    <title>Tencent</title>
    <path fill="#168bff"
        d="M10.52 4.086c-1.9-.072-3.664.564-5.067 1.495-1.37.918-2.37 2.137-2.37 3.37 0 2.072 2.35 3.756 5.583 3.942a1.3 1.3 0 0 0-.03.263c0 .815.855 1.476 1.91 1.476.773 0 1.433-.34 1.735-.828.2.015.404.024.61.024 1.902.072 3.668-.564 5.07-1.495 1.37-.918 2.37-2.137 2.37-3.37 0-2.072-2.352-3.756-5.585-3.942a1.3 1.3 0 0 0 .03-.263c0-.815-.855-1.476-1.91-1.476-.773 0-1.433.34-1.735.828-.2-.015-.404-.024-.61-.024M3.62 15.31l-.41 1.15h3.14l.404-1.15zm7.47 0-.41 1.15h9.8l.41-1.15z" />
</svg>